<mxfile host="app.diagrams.net" agent="Mozilla/5.0 (Windows NT 10.0; Win64; x64) AppleWebKit/537.36 (KHTML, like Gecko) Chrome/133.0.0.0 Safari/537.36" version="26.0.16" pages="2">
  <diagram id="jePEmirGJjCFWZgr9R77" name="register">
    <mxGraphModel dx="1035" dy="548" grid="1" gridSize="10" guides="1" tooltips="1" connect="1" arrows="1" fold="1" page="1" pageScale="1" pageWidth="827" pageHeight="1169" math="0" shadow="0">
      <root>
        <mxCell id="0" />
        <mxCell id="1" parent="0" />
        <mxCell id="0oU7VvRD6Vdt0wbhsqFe-1" value="" style="verticalLabelPosition=bottom;verticalAlign=top;html=1;shadow=0;dashed=0;strokeWidth=1;shape=mxgraph.android.phone2;strokeColor=#c0c0c0;fillColor=light-dark(#330000,var(--ge-dark-color, #121212));" parent="1" vertex="1">
          <mxGeometry x="270.01" y="15" width="350" height="675" as="geometry" />
        </mxCell>
        <mxCell id="I4vPnrvsCS4YJN09SwZR-1" value="Sign up" style="rounded=1;html=1;shadow=0;dashed=0;whiteSpace=wrap;fontSize=10;fillColor=#666666;align=center;strokeColor=#4D4D4D;fontColor=#ffffff;" parent="1" vertex="1">
          <mxGeometry x="401.13" y="490" width="87.75" height="30" as="geometry" />
        </mxCell>
        <mxCell id="I4vPnrvsCS4YJN09SwZR-2" value="Name&lt;sup&gt;&lt;font color=&quot;#ff0000&quot;&gt;*&lt;/font&gt;&lt;/sup&gt;" style="fillColor=none;strokeColor=none;html=1;fontSize=11;fontStyle=0;align=left;fontColor=#596780;fontStyle=1;fontSize=11" parent="1" vertex="1">
          <mxGeometry x="330" y="170" width="240" height="20" as="geometry" />
        </mxCell>
        <mxCell id="I4vPnrvsCS4YJN09SwZR-3" value="" style="rounded=1;arcSize=9;align=left;spacingLeft=5;strokeColor=#4C9AFF;html=1;strokeWidth=2;fontSize=12" parent="1" vertex="1">
          <mxGeometry x="330" y="200" width="250" height="33" as="geometry" />
        </mxCell>
        <mxCell id="I4vPnrvsCS4YJN09SwZR-4" value="Password" style="fillColor=none;strokeColor=none;html=1;fontSize=11;fontStyle=0;align=left;fontColor=#596780;fontStyle=1;fontSize=11" parent="1" vertex="1">
          <mxGeometry x="330" y="280" width="240" height="20" as="geometry" />
        </mxCell>
        <mxCell id="I4vPnrvsCS4YJN09SwZR-5" value="" style="rounded=1;arcSize=9;align=left;spacingLeft=5;strokeColor=#4C9AFF;html=1;strokeWidth=2;fontSize=12" parent="1" vertex="1">
          <mxGeometry x="330" y="305" width="250" height="33" as="geometry" />
        </mxCell>
        <mxCell id="7Zh6l3FUp-JfIekAFlcO-1" value="Sign up" style="text;html=1;align=center;verticalAlign=middle;whiteSpace=wrap;rounded=0;" parent="1" vertex="1">
          <mxGeometry x="415.01" y="120" width="60" height="30" as="geometry" />
        </mxCell>
        <mxCell id="k2nWUoBri2Ow_LevvHqa-4" value="Email" style="fillColor=none;strokeColor=none;html=1;fontSize=11;fontStyle=0;align=left;fontColor=#596780;fontStyle=1;fontSize=11" parent="1" vertex="1">
          <mxGeometry x="330" y="380" width="240" height="20" as="geometry" />
        </mxCell>
        <mxCell id="k2nWUoBri2Ow_LevvHqa-5" value="" style="rounded=1;arcSize=9;align=left;spacingLeft=5;strokeColor=#4C9AFF;html=1;strokeWidth=2;fontSize=12" parent="1" vertex="1">
          <mxGeometry x="330" y="410" width="250" height="33" as="geometry" />
        </mxCell>
        <mxCell id="k2nWUoBri2Ow_LevvHqa-6" value="sign up succesfull" style="text;html=1;align=center;verticalAlign=middle;whiteSpace=wrap;rounded=0;" parent="1" vertex="1">
          <mxGeometry x="415.01" y="540" width="60" height="30" as="geometry" />
        </mxCell>
        <mxCell id="OAgnztjfkMtm-UY70IXR-10" value="" style="verticalLabelPosition=bottom;verticalAlign=top;html=1;shadow=0;dashed=0;strokeWidth=1;shape=mxgraph.android.phone2;strokeColor=#c0c0c0;fillColor=light-dark(#330000,var(--ge-dark-color, #121212));" vertex="1" parent="1">
          <mxGeometry x="800" y="15" width="350" height="675" as="geometry" />
        </mxCell>
        <mxCell id="OAgnztjfkMtm-UY70IXR-11" value="Login" style="rounded=1;html=1;shadow=0;dashed=0;whiteSpace=wrap;fontSize=10;fillColor=#666666;align=center;strokeColor=#4D4D4D;fontColor=#ffffff;" vertex="1" parent="1">
          <mxGeometry x="921.13" y="466.5" width="87.75" height="30" as="geometry" />
        </mxCell>
        <mxCell id="OAgnztjfkMtm-UY70IXR-14" value="Password" style="fillColor=none;strokeColor=none;html=1;fontSize=11;fontStyle=0;align=left;fontColor=#596780;fontStyle=1;fontSize=11" vertex="1" parent="1">
          <mxGeometry x="850" y="260" width="240" height="20" as="geometry" />
        </mxCell>
        <mxCell id="OAgnztjfkMtm-UY70IXR-15" value="" style="rounded=1;arcSize=9;align=left;spacingLeft=5;strokeColor=#4C9AFF;html=1;strokeWidth=2;fontSize=12" vertex="1" parent="1">
          <mxGeometry x="850" y="210" width="250" height="33" as="geometry" />
        </mxCell>
        <mxCell id="OAgnztjfkMtm-UY70IXR-16" value="Login" style="text;html=1;align=center;verticalAlign=middle;whiteSpace=wrap;rounded=0;" vertex="1" parent="1">
          <mxGeometry x="935.01" y="120" width="60" height="30" as="geometry" />
        </mxCell>
        <mxCell id="OAgnztjfkMtm-UY70IXR-17" value="Email" style="fillColor=none;strokeColor=none;html=1;fontSize=11;fontStyle=0;align=left;fontColor=#596780;fontStyle=1;fontSize=11" vertex="1" parent="1">
          <mxGeometry x="850" y="180" width="240" height="20" as="geometry" />
        </mxCell>
        <mxCell id="OAgnztjfkMtm-UY70IXR-18" value="" style="rounded=1;arcSize=9;align=left;spacingLeft=5;strokeColor=#4C9AFF;html=1;strokeWidth=2;fontSize=12" vertex="1" parent="1">
          <mxGeometry x="850" y="290" width="250" height="33" as="geometry" />
        </mxCell>
      </root>
    </mxGraphModel>
  </diagram>
  <diagram name="login" id="vIwNCxG2R3NSsn7bslp3">
    <mxGraphModel dx="1269" dy="648" grid="1" gridSize="10" guides="1" tooltips="1" connect="1" arrows="1" fold="1" page="1" pageScale="1" pageWidth="827" pageHeight="1169" math="0" shadow="0">
      <root>
        <mxCell id="0" />
        <mxCell id="1" parent="0" />
        <mxCell id="fUSSOf62ad5XIPjs2Fev-1" value="" style="verticalLabelPosition=bottom;verticalAlign=top;html=1;shadow=0;dashed=0;strokeWidth=1;shape=mxgraph.android.phone2;strokeColor=#c0c0c0;fillColor=light-dark(#330000,var(--ge-dark-color, #121212));" vertex="1" parent="1">
          <mxGeometry x="270.01" y="15" width="350" height="550" as="geometry" />
        </mxCell>
        <mxCell id="fUSSOf62ad5XIPjs2Fev-3" value="Login" style="rounded=1;html=1;shadow=0;dashed=0;whiteSpace=wrap;fontSize=10;fillColor=#666666;align=center;strokeColor=#4D4D4D;fontColor=#ffffff;" vertex="1" parent="1">
          <mxGeometry x="401.13" y="400" width="87.75" height="30" as="geometry" />
        </mxCell>
        <mxCell id="fUSSOf62ad5XIPjs2Fev-5" value="Login" style="text;html=1;align=center;verticalAlign=middle;whiteSpace=wrap;rounded=0;" vertex="1" parent="1">
          <mxGeometry x="415.01" y="120" width="60" height="30" as="geometry" />
        </mxCell>
        <mxCell id="fUSSOf62ad5XIPjs2Fev-8" value="Name&lt;sup&gt;&lt;font color=&quot;#ff0000&quot;&gt;*&lt;/font&gt;&lt;/sup&gt;" style="fillColor=none;strokeColor=none;html=1;fontSize=11;fontStyle=0;align=left;fontColor=#596780;fontStyle=1;fontSize=11" vertex="1" parent="1">
          <mxGeometry x="330" y="170" width="240" height="20" as="geometry" />
        </mxCell>
        <mxCell id="fUSSOf62ad5XIPjs2Fev-9" value="" style="rounded=1;arcSize=9;align=left;spacingLeft=5;strokeColor=#4C9AFF;html=1;strokeWidth=2;fontSize=12" vertex="1" parent="1">
          <mxGeometry x="330" y="200" width="250" height="33" as="geometry" />
        </mxCell>
        <mxCell id="fUSSOf62ad5XIPjs2Fev-10" value="Password" style="fillColor=none;strokeColor=none;html=1;fontSize=11;fontStyle=0;align=left;fontColor=#596780;fontStyle=1;fontSize=11" vertex="1" parent="1">
          <mxGeometry x="330" y="280" width="240" height="20" as="geometry" />
        </mxCell>
        <mxCell id="fUSSOf62ad5XIPjs2Fev-11" value="" style="rounded=1;arcSize=9;align=left;spacingLeft=5;strokeColor=#4C9AFF;html=1;strokeWidth=2;fontSize=12" vertex="1" parent="1">
          <mxGeometry x="330" y="305" width="250" height="33" as="geometry" />
        </mxCell>
        <mxCell id="Mmde09NxmE_c7Ciw0Ihp-1" value="login succesfull" style="text;html=1;align=center;verticalAlign=middle;whiteSpace=wrap;rounded=0;" vertex="1" parent="1">
          <mxGeometry x="415.01" y="450" width="60" height="30" as="geometry" />
        </mxCell>
      </root>
    </mxGraphModel>
  </diagram>
</mxfile>
